<?xml version="1.0" standalone="no"?><!DOCTYPE svg PUBLIC "-//W3C//DTD SVG 1.1//EN" "http://www.w3.org/Graphics/SVG/1.1/DTD/svg11.dtd"><svg t="1643701722584" class="icon" viewBox="0 0 1024 1024" version="1.1" xmlns="http://www.w3.org/2000/svg" p-id="1708" xmlns:xlink="http://www.w3.org/1999/xlink" width="200" height="200"><defs><style type="text/css"></style></defs><path d="M512 901.565c-222.609 0-400.696-180.313-400.696-400.695C109.078 280.487 289.391 97.948 512 97.948S912.696 278.26 912.696 498.643c0 222.61-180.313 402.922-400.696 402.922z" fill="#FFFFFF" p-id="1709"></path><path d="M957.217 253.774c0-117.983-95.721-213.704-213.704-213.704H269.357c-117.983 0-213.705 95.721-213.705 213.704V768c0 117.983 95.722 213.704 213.705 213.704h442.99s2.227 0 2.227-2.226c2.226 0 2.226-2.226 4.452-4.452l227.061-227.06c2.226-2.227 2.226-2.227 2.226-4.453v-2.226s2.226-2.226 2.226-4.452v-2.226c0-2.226 2.226-2.226 2.226-4.452v-4.453l4.452-471.93z m-843.687 512v-512c0-86.817 71.235-158.052 158.053-158.052h474.156c86.818 0 158.052 71.235 158.052 158.052v442.991H770.226c-51.2 0-93.496 42.296-93.496 93.496v133.565H269.357c-84.592 0-155.827-71.235-155.827-158.052z m616.627 117.983V790.26c0-20.035 15.582-37.844 37.843-37.844h93.496l-131.34 131.34z m0 0" fill="#338AFB" p-id="1710" data-spm-anchor-id="a313x.7781069.0.i1" class="selected"></path><path d="M271.583 741.287c-6.679 0-8.905-6.678-8.905-8.904s2.226-8.905 6.679-8.905c151.373-62.33 298.295-91.27 458.573-97.948h73.461l-15.582 2.227c-162.505 15.582-329.461 37.843-476.383 102.4-13.356 4.452-24.487 6.678-37.843 11.13z m373.982-186.991c-15.582 0-33.391-2.226-44.522-15.583-8.904-13.356-17.808-26.713-17.808-42.296 0-46.747 13.356-91.27 42.295-126.887 26.713-35.617 62.33-73.46 109.079-75.687 44.521-2.226 51.2 48.974 53.426 64.557 4.452 75.687-60.105 173.635-142.47 195.896z m86.818-209.253c-2.226 0-91.27 13.357-111.305 146.922 0 6.678 2.226 26.713 13.357 26.713 17.808-2.226 28.939-13.356 40.07-26.713 11.13-11.13 22.26-24.487 33.39-35.617 20.035-26.713 42.296-57.878 44.522-91.27 0-15.582-8.904-17.808-20.034-20.035z m-449.67 44.522s-42.296 17.809-46.748 20.035c-2.226 2.226 4.452-24.487 13.357-28.94 22.26-13.356 40.07-28.938 62.33-40.069 8.905-4.452 20.035 11.13 20.035 22.261 0 8.905 0 8.905-46.748 113.53-15.582 33.392-31.165 69.01-33.391 104.627-2.226 31.165-40.07 17.808-40.07-8.905s6.679-55.652 15.583-77.913c15.582-35.617 35.617-66.782 55.652-104.626z m293.844-2.226c2.226 64.557-55.653 166.957-140.244 189.218-15.583 0-35.617 0-44.522-13.357-13.356-8.904-17.808-26.713-17.808-44.522 0-46.748 17.808-93.495 42.295-124.66 33.392-40.07 46.748-64.557 109.079-77.914 37.843-11.13 51.2 55.653 51.2 71.235z m-77.914-11.13c-24.486 13.356-82.365 82.365-84.59 138.017 0 6.678 6.677 26.713 53.425 0 13.357-8.904 22.261-24.487 33.392-35.617 20.034-26.713 37.843-57.879 40.07-91.27-2.227-40.07-42.297-8.904-42.297-11.13zM227.061 681.183c151.374-62.33 262.678-89.044 422.956-95.722H768l-24.487 2.226c-164.73 15.583-329.46 35.617-478.609 97.948-13.356 6.678-24.487 8.904-35.617 13.356h-2.226c-13.357-4.452-4.452-15.582 0-17.808z m0 0" fill="#338AFB" p-id="1711" data-spm-anchor-id="a313x.7781069.0.i2" class="selected"></path></svg>