<?xml version="1.0" standalone="no"?><!DOCTYPE svg PUBLIC "-//W3C//DTD SVG 1.1//EN" "http://www.w3.org/Graphics/SVG/1.1/DTD/svg11.dtd"><svg t="1646813338500" class="icon" viewBox="0 0 1024 1024" version="1.1" xmlns="http://www.w3.org/2000/svg" p-id="18335" xmlns:xlink="http://www.w3.org/1999/xlink" width="200" height="200"><defs><style type="text/css"></style></defs><path d="M639.402667 85.333333C770.048 85.333333 853.333333 146.56 853.333333 267.008V867.413333c0 18.901333-7.338667 36.992-20.352 50.346667-13.013333 13.354667-30.72 20.864-49.578666 20.864a72.746667 72.746667 0 0 1-33.066667-8.661333l-239.445333-133.674667-238.506667 133.973333c-28.714667 15.274667-63.530667 8.234667-85.333333-17.322666l-4.181334-5.376-3.968-6.613334A75.861333 75.861333 0 0 1 170.666667 867.456V274.517333C170.666667 149.333333 252.16 85.333333 384.597333 85.333333z m0 61.781334H384.597333c-102.186667 0-153.685333 40.448-153.685333 127.402666V866.986667c0 1.877333 0.469333 3.712 0 2.986666l1.578667 2.688c2.773333 3.84 7.936 5.12 11.52 3.2l238.421333-133.930666c17.749333-9.813333 39.168-9.813333 57.045333 0.042666l239.018667 133.461334c1.834667 0.981333 3.84 1.493333 5.376 1.493333a9.088 9.088 0 0 0 6.528-2.773333 9.557333 9.557333 0 0 0 2.688-6.656V267.008c0-81.066667-52.821333-119.893333-153.685333-119.893333z m18.005333 207.744c16.64 0 30.122667 13.824 30.122667 30.890666 0 15.616-11.349333 28.544-26.026667 30.592l-4.096 0.256H364.373333a30.506667 30.506667 0 0 1-30.122666-30.848c0-15.658667 11.349333-28.586667 26.026666-30.634666l4.096-0.256h293.034667z" p-id="18336"></path></svg>
